<svg width="1363" height="163" viewBox="0 0 1363 163" fill="none" xmlns="http://www.w3.org/2000/svg">
<path d="M0 15C0 6.71573 6.71573 0 15 0H37V163H15C6.71573 163 0 156.284 0 148V15Z" fill="#424242"/>
<rect width="1097" height="163" transform="translate(37)" fill="#F0F0F0"/>
<path d="M101.906 53.9219L94.3945 51.2383V48.0859L104.602 52.375V54.6367L101.906 53.9219ZM94.3945 56.1719L101.918 53.4297L104.602 52.7852V55.0352L94.3945 59.3242V56.1719ZM119.051 57.4375L123.07 43.9375H126.984L121.043 61H118.465L119.051 57.4375ZM115.348 43.9375L119.355 57.4375L119.965 61H117.363L111.457 43.9375H115.348ZM131.93 48.3203V61H128.543V48.3203H131.93ZM128.332 45.0156C128.332 44.5234 128.504 44.1172 128.848 43.7969C129.191 43.4766 129.652 43.3164 130.23 43.3164C130.801 43.3164 131.258 43.4766 131.602 43.7969C131.953 44.1172 132.129 44.5234 132.129 45.0156C132.129 45.5078 131.953 45.9141 131.602 46.2344C131.258 46.5547 130.801 46.7148 130.23 46.7148C129.652 46.7148 129.191 46.5547 128.848 46.2344C128.504 45.9141 128.332 45.5078 128.332 45.0156ZM140.93 48.3203V50.7109H133.547V48.3203H140.93ZM135.375 45.1914H138.75V57.1797C138.75 57.5469 138.797 57.8281 138.891 58.0234C138.992 58.2188 139.141 58.3555 139.336 58.4336C139.531 58.5039 139.777 58.5391 140.074 58.5391C140.285 58.5391 140.473 58.5312 140.637 58.5156C140.809 58.4922 140.953 58.4688 141.07 58.4453L141.082 60.9297C140.793 61.0234 140.48 61.0977 140.145 61.1523C139.809 61.207 139.438 61.2344 139.031 61.2344C138.289 61.2344 137.641 61.1133 137.086 60.8711C136.539 60.6211 136.117 60.2227 135.82 59.6758C135.523 59.1289 135.375 58.4102 135.375 57.5195V45.1914ZM149.695 58.1406V52.4922C149.695 52.0859 149.629 51.7383 149.496 51.4492C149.363 51.1523 149.156 50.9219 148.875 50.7578C148.602 50.5938 148.246 50.5117 147.809 50.5117C147.434 50.5117 147.109 50.5781 146.836 50.7109C146.562 50.8359 146.352 51.0195 146.203 51.2617C146.055 51.4961 145.98 51.7734 145.98 52.0938H142.605C142.605 51.5547 142.73 51.043 142.98 50.5586C143.23 50.0742 143.594 49.6484 144.07 49.2812C144.547 48.9062 145.113 48.6133 145.77 48.4023C146.434 48.1914 147.176 48.0859 147.996 48.0859C148.98 48.0859 149.855 48.25 150.621 48.5781C151.387 48.9062 151.988 49.3984 152.426 50.0547C152.871 50.7109 153.094 51.5312 153.094 52.5156V57.9414C153.094 58.6367 153.137 59.207 153.223 59.6523C153.309 60.0898 153.434 60.4727 153.598 60.8008V61H150.188C150.023 60.6562 149.898 60.2266 149.812 59.7109C149.734 59.1875 149.695 58.6641 149.695 58.1406ZM150.141 53.2773L150.164 55.1875H148.277C147.832 55.1875 147.445 55.2383 147.117 55.3398C146.789 55.4414 146.52 55.5859 146.309 55.7734C146.098 55.9531 145.941 56.1641 145.84 56.4062C145.746 56.6484 145.699 56.9141 145.699 57.2031C145.699 57.4922 145.766 57.7539 145.898 57.9883C146.031 58.2148 146.223 58.3945 146.473 58.5273C146.723 58.6523 147.016 58.7148 147.352 58.7148C147.859 58.7148 148.301 58.6133 148.676 58.4102C149.051 58.207 149.34 57.957 149.543 57.6602C149.754 57.3633 149.863 57.082 149.871 56.8164L150.762 58.2461C150.637 58.5664 150.465 58.8984 150.246 59.2422C150.035 59.5859 149.766 59.9102 149.438 60.2148C149.109 60.5117 148.715 60.7578 148.254 60.9531C147.793 61.1406 147.246 61.2344 146.613 61.2344C145.809 61.2344 145.078 61.0742 144.422 60.7539C143.773 60.4258 143.258 59.9766 142.875 59.4062C142.5 58.8281 142.312 58.1719 142.312 57.4375C142.312 56.7734 142.438 56.1836 142.688 55.668C142.938 55.1523 143.305 54.7188 143.789 54.3672C144.281 54.0078 144.895 53.7383 145.629 53.5586C146.363 53.3711 147.215 53.2773 148.184 53.2773H150.141ZM166.875 58.2578V61H158.285V58.2578H166.875ZM159.422 43.9375V61H155.906V43.9375H159.422ZM174.516 61.2344C173.531 61.2344 172.648 61.0781 171.867 60.7656C171.086 60.4453 170.422 60.0039 169.875 59.4414C169.336 58.8789 168.922 58.2266 168.633 57.4844C168.344 56.7344 168.199 55.9375 168.199 55.0938V54.625C168.199 53.6641 168.336 52.7852 168.609 51.9883C168.883 51.1914 169.273 50.5 169.781 49.9141C170.297 49.3281 170.922 48.8789 171.656 48.5664C172.391 48.2461 173.219 48.0859 174.141 48.0859C175.039 48.0859 175.836 48.2344 176.531 48.5312C177.227 48.8281 177.809 49.25 178.277 49.7969C178.754 50.3438 179.113 51 179.355 51.7656C179.598 52.5234 179.719 53.3672 179.719 54.2969V55.7031H169.641V53.4531H176.402V53.1953C176.402 52.7266 176.316 52.3086 176.145 51.9414C175.98 51.5664 175.73 51.2695 175.395 51.0508C175.059 50.832 174.629 50.7227 174.105 50.7227C173.66 50.7227 173.277 50.8203 172.957 51.0156C172.637 51.2109 172.375 51.4844 172.172 51.8359C171.977 52.1875 171.828 52.6016 171.727 53.0781C171.633 53.5469 171.586 54.0625 171.586 54.625V55.0938C171.586 55.6016 171.656 56.0703 171.797 56.5C171.945 56.9297 172.152 57.3008 172.418 57.6133C172.691 57.9258 173.02 58.168 173.402 58.3398C173.793 58.5117 174.234 58.5977 174.727 58.5977C175.336 58.5977 175.902 58.4805 176.426 58.2461C176.957 58.0039 177.414 57.6406 177.797 57.1562L179.438 58.9375C179.172 59.3203 178.809 59.6875 178.348 60.0391C177.895 60.3906 177.348 60.6797 176.707 60.9062C176.066 61.125 175.336 61.2344 174.516 61.2344ZM184.945 51.0273V61H181.57V48.3203H184.734L184.945 51.0273ZM184.453 54.2148H183.539C183.539 53.2773 183.66 52.4336 183.902 51.6836C184.145 50.9258 184.484 50.2812 184.922 49.75C185.359 49.2109 185.879 48.8008 186.48 48.5195C187.09 48.2305 187.77 48.0859 188.52 48.0859C189.113 48.0859 189.656 48.1719 190.148 48.3438C190.641 48.5156 191.062 48.7891 191.414 49.1641C191.773 49.5391 192.047 50.0352 192.234 50.6523C192.43 51.2695 192.527 52.0234 192.527 52.9141V61H189.129V52.9023C189.129 52.3398 189.051 51.9023 188.895 51.5898C188.738 51.2773 188.508 51.0586 188.203 50.9336C187.906 50.8008 187.539 50.7344 187.102 50.7344C186.648 50.7344 186.254 50.8242 185.918 51.0039C185.59 51.1836 185.316 51.4336 185.098 51.7539C184.887 52.0664 184.727 52.4336 184.617 52.8555C184.508 53.2773 184.453 53.7305 184.453 54.2148ZM201.949 57.4961C201.949 57.2539 201.879 57.0352 201.738 56.8398C201.598 56.6445 201.336 56.4648 200.953 56.3008C200.578 56.1289 200.035 55.9727 199.324 55.832C198.684 55.6914 198.086 55.5156 197.531 55.3047C196.984 55.0859 196.508 54.8242 196.102 54.5195C195.703 54.2148 195.391 53.8555 195.164 53.4414C194.938 53.0195 194.824 52.5391 194.824 52C194.824 51.4688 194.938 50.9688 195.164 50.5C195.398 50.0312 195.73 49.6172 196.16 49.2578C196.598 48.8906 197.129 48.6055 197.754 48.4023C198.387 48.1914 199.098 48.0859 199.887 48.0859C200.988 48.0859 201.934 48.2617 202.723 48.6133C203.52 48.9648 204.129 49.4492 204.551 50.0664C204.98 50.6758 205.195 51.3711 205.195 52.1523H201.82C201.82 51.8242 201.75 51.5312 201.609 51.2734C201.477 51.0078 201.266 50.8008 200.977 50.6523C200.695 50.4961 200.328 50.418 199.875 50.418C199.5 50.418 199.176 50.4844 198.902 50.6172C198.629 50.7422 198.418 50.9141 198.27 51.1328C198.129 51.3438 198.059 51.5781 198.059 51.8359C198.059 52.0312 198.098 52.207 198.176 52.3633C198.262 52.5117 198.398 52.6484 198.586 52.7734C198.773 52.8984 199.016 53.0156 199.312 53.125C199.617 53.2266 199.992 53.3203 200.438 53.4062C201.352 53.5938 202.168 53.8398 202.887 54.1445C203.605 54.4414 204.176 54.8477 204.598 55.3633C205.02 55.8711 205.23 56.5391 205.23 57.3672C205.23 57.9297 205.105 58.4453 204.855 58.9141C204.605 59.3828 204.246 59.793 203.777 60.1445C203.309 60.4883 202.746 60.7578 202.09 60.9531C201.441 61.1406 200.711 61.2344 199.898 61.2344C198.719 61.2344 197.719 61.0234 196.898 60.6016C196.086 60.1797 195.469 59.6445 195.047 58.9961C194.633 58.3398 194.426 57.668 194.426 56.9805H197.625C197.641 57.4414 197.758 57.8125 197.977 58.0938C198.203 58.375 198.488 58.5781 198.832 58.7031C199.184 58.8281 199.562 58.8906 199.969 58.8906C200.406 58.8906 200.77 58.832 201.059 58.7148C201.348 58.5898 201.566 58.4258 201.715 58.2227C201.871 58.0117 201.949 57.7695 201.949 57.4961Z" fill="#888888"/>
<path d="M106.688 119H99.1172L99.1641 112.672H106.688C108.25 112.672 109.57 112.297 110.648 111.547C111.742 110.797 112.57 109.68 113.133 108.195C113.711 106.695 114 104.852 114 102.664V101.188C114 99.5469 113.836 98.1094 113.508 96.875C113.195 95.625 112.727 94.5859 112.102 93.7578C111.477 92.9141 110.695 92.2812 109.758 91.8594C108.836 91.4375 107.773 91.2266 106.57 91.2266H98.9766V84.875H106.57C108.883 84.875 111 85.2734 112.922 86.0703C114.859 86.8516 116.531 87.9766 117.938 89.4453C119.359 90.8984 120.453 92.625 121.219 94.625C122 96.6094 122.391 98.8125 122.391 101.234V102.664C122.391 105.07 122 107.273 121.219 109.273C120.453 111.273 119.367 113 117.961 114.453C116.555 115.906 114.891 117.031 112.969 117.828C111.062 118.609 108.969 119 106.688 119ZM103.828 84.875V119H95.6016V84.875H103.828ZM138.586 119.469C136.523 119.469 134.68 119.148 133.055 118.508C131.43 117.852 130.055 116.953 128.93 115.812C127.82 114.672 126.969 113.359 126.375 111.875C125.797 110.391 125.508 108.82 125.508 107.164V106.273C125.508 104.414 125.766 102.695 126.281 101.117C126.797 99.5234 127.562 98.1328 128.578 96.9453C129.594 95.7578 130.867 94.8359 132.398 94.1797C133.93 93.5078 135.711 93.1719 137.742 93.1719C139.539 93.1719 141.148 93.4609 142.57 94.0391C143.992 94.6172 145.195 95.4453 146.18 96.5234C147.18 97.6016 147.938 98.9062 148.453 100.438C148.984 101.969 149.25 103.688 149.25 105.594V108.805H128.531V103.859H141.539V103.25C141.555 102.406 141.406 101.688 141.094 101.094C140.797 100.5 140.359 100.047 139.781 99.7344C139.203 99.4219 138.5 99.2656 137.672 99.2656C136.812 99.2656 136.102 99.4531 135.539 99.8281C134.992 100.203 134.562 100.719 134.25 101.375C133.953 102.016 133.742 102.758 133.617 103.602C133.492 104.445 133.43 105.336 133.43 106.273V107.164C133.43 108.102 133.555 108.953 133.805 109.719C134.07 110.484 134.445 111.141 134.93 111.688C135.43 112.219 136.023 112.633 136.711 112.93C137.414 113.227 138.211 113.375 139.102 113.375C140.18 113.375 141.242 113.172 142.289 112.766C143.336 112.359 144.234 111.688 144.984 110.75L148.57 115.016C148.055 115.75 147.32 116.461 146.367 117.148C145.43 117.836 144.305 118.398 142.992 118.836C141.68 119.258 140.211 119.469 138.586 119.469ZM160.43 98.5156V128.75H152.531V93.6406H159.891L160.43 98.5156ZM175.992 106.016V106.508C175.992 108.352 175.781 110.062 175.359 111.641C174.938 113.219 174.312 114.594 173.484 115.766C172.656 116.938 171.625 117.852 170.391 118.508C169.172 119.148 167.758 119.469 166.148 119.469C164.633 119.469 163.328 119.133 162.234 118.461C161.141 117.789 160.227 116.859 159.492 115.672C158.758 114.484 158.164 113.125 157.711 111.594C157.258 110.062 156.898 108.445 156.633 106.742V106.109C156.898 104.281 157.258 102.586 157.711 101.023C158.164 99.4453 158.758 98.0703 159.492 96.8984C160.227 95.7266 161.133 94.8125 162.211 94.1562C163.305 93.5 164.609 93.1719 166.125 93.1719C167.734 93.1719 169.148 93.4766 170.367 94.0859C171.602 94.6953 172.633 95.5703 173.461 96.7109C174.305 97.8359 174.938 99.1875 175.359 100.766C175.781 102.344 175.992 104.094 175.992 106.016ZM168.094 106.508V106.016C168.094 105.031 168.023 104.133 167.883 103.32C167.742 102.492 167.516 101.773 167.203 101.164C166.906 100.555 166.508 100.086 166.008 99.7578C165.508 99.4297 164.891 99.2656 164.156 99.2656C163.312 99.2656 162.602 99.3984 162.023 99.6641C161.461 99.9141 161.008 100.305 160.664 100.836C160.336 101.352 160.102 102 159.961 102.781C159.836 103.547 159.781 104.445 159.797 105.477V107.398C159.766 108.586 159.883 109.633 160.148 110.539C160.414 111.43 160.875 112.125 161.531 112.625C162.188 113.125 163.078 113.375 164.203 113.375C164.953 113.375 165.578 113.203 166.078 112.859C166.578 112.5 166.977 112.008 167.273 111.383C167.57 110.742 167.781 110.008 167.906 109.18C168.031 108.352 168.094 107.461 168.094 106.508ZM187.852 83V119H179.93V83H187.852ZM191.742 106.578V106.086C191.742 104.227 192.008 102.516 192.539 100.953C193.07 99.375 193.852 98.0078 194.883 96.8516C195.914 95.6953 197.188 94.7969 198.703 94.1562C200.219 93.5 201.969 93.1719 203.953 93.1719C205.953 93.1719 207.711 93.5 209.227 94.1562C210.758 94.7969 212.039 95.6953 213.07 96.8516C214.102 98.0078 214.883 99.375 215.414 100.953C215.945 102.516 216.211 104.227 216.211 106.086V106.578C216.211 108.422 215.945 110.133 215.414 111.711C214.883 113.273 214.102 114.641 213.07 115.812C212.039 116.969 210.766 117.867 209.25 118.508C207.734 119.148 205.984 119.469 204 119.469C202.016 119.469 200.258 119.148 198.727 118.508C197.195 117.867 195.914 116.969 194.883 115.812C193.852 114.641 193.07 113.273 192.539 111.711C192.008 110.133 191.742 108.422 191.742 106.578ZM199.641 106.086V106.578C199.641 107.531 199.711 108.422 199.852 109.25C199.992 110.078 200.227 110.805 200.555 111.43C200.883 112.039 201.328 112.516 201.891 112.859C202.453 113.203 203.156 113.375 204 113.375C204.828 113.375 205.516 113.203 206.062 112.859C206.625 112.516 207.07 112.039 207.398 111.43C207.727 110.805 207.961 110.078 208.102 109.25C208.242 108.422 208.312 107.531 208.312 106.578V106.086C208.312 105.164 208.242 104.297 208.102 103.484C207.961 102.656 207.727 101.93 207.398 101.305C207.07 100.664 206.625 100.164 206.062 99.8047C205.5 99.4453 204.797 99.2656 203.953 99.2656C203.125 99.2656 202.43 99.4453 201.867 99.8047C201.32 100.164 200.883 100.664 200.555 101.305C200.227 101.93 199.992 102.656 199.852 103.484C199.711 104.297 199.641 105.164 199.641 106.086ZM227.133 116.023L233.695 93.6406H242.18L231.984 122.773C231.766 123.414 231.477 124.102 231.117 124.836C230.758 125.586 230.266 126.297 229.641 126.969C229.016 127.641 228.211 128.188 227.227 128.609C226.258 129.031 225.055 129.242 223.617 129.242C222.852 129.242 222.289 129.203 221.93 129.125C221.586 129.062 221.055 128.945 220.336 128.773V123.125C220.539 123.125 220.711 123.125 220.852 123.125C221.008 123.125 221.18 123.125 221.367 123.125C222.211 123.125 222.883 123.039 223.383 122.867C223.898 122.695 224.289 122.445 224.555 122.117C224.836 121.789 225.055 121.391 225.211 120.922L227.133 116.023ZM225.469 93.6406L230.461 111.383L231.328 119.75H226.031L217.008 93.6406H225.469ZM252.211 99.0078V119H244.312V93.6406H251.719L252.211 99.0078ZM251.25 105.453L249.445 105.5C249.445 103.719 249.656 102.078 250.078 100.578C250.5 99.0781 251.125 97.7734 251.953 96.6641C252.781 95.5547 253.797 94.6953 255 94.0859C256.219 93.4766 257.625 93.1719 259.219 93.1719C260.328 93.1719 261.336 93.3438 262.242 93.6875C263.148 94.0156 263.93 94.5391 264.586 95.2578C265.242 95.9609 265.742 96.8828 266.086 98.0234C266.445 99.1484 266.625 100.5 266.625 102.078V119H258.727V103.086C258.727 102.008 258.602 101.195 258.352 100.648C258.117 100.102 257.773 99.7344 257.32 99.5469C256.867 99.3594 256.312 99.2656 255.656 99.2656C254.969 99.2656 254.352 99.4219 253.805 99.7344C253.258 100.047 252.789 100.484 252.398 101.047C252.023 101.594 251.734 102.242 251.531 102.992C251.344 103.742 251.25 104.562 251.25 105.453ZM265.734 105.453L263.531 105.5C263.531 103.719 263.727 102.078 264.117 100.578C264.523 99.0781 265.125 97.7734 265.922 96.6641C266.734 95.5547 267.742 94.6953 268.945 94.0859C270.148 93.4766 271.547 93.1719 273.141 93.1719C274.297 93.1719 275.359 93.3438 276.328 93.6875C277.297 94.0312 278.133 94.5859 278.836 95.3516C279.539 96.1172 280.086 97.1328 280.477 98.3984C280.867 99.6484 281.062 101.195 281.062 103.039V119H273.141V103.039C273.141 101.992 273.016 101.203 272.766 100.672C272.531 100.125 272.188 99.7578 271.734 99.5703C271.281 99.3672 270.742 99.2656 270.117 99.2656C269.367 99.2656 268.719 99.4219 268.172 99.7344C267.625 100.047 267.164 100.484 266.789 101.047C266.43 101.594 266.164 102.242 265.992 102.992C265.82 103.742 265.734 104.562 265.734 105.453ZM297.867 119.469C295.805 119.469 293.961 119.148 292.336 118.508C290.711 117.852 289.336 116.953 288.211 115.812C287.102 114.672 286.25 113.359 285.656 111.875C285.078 110.391 284.789 108.82 284.789 107.164V106.273C284.789 104.414 285.047 102.695 285.562 101.117C286.078 99.5234 286.844 98.1328 287.859 96.9453C288.875 95.7578 290.148 94.8359 291.68 94.1797C293.211 93.5078 294.992 93.1719 297.023 93.1719C298.82 93.1719 300.43 93.4609 301.852 94.0391C303.273 94.6172 304.477 95.4453 305.461 96.5234C306.461 97.6016 307.219 98.9062 307.734 100.438C308.266 101.969 308.531 103.688 308.531 105.594V108.805H287.812V103.859H300.82V103.25C300.836 102.406 300.688 101.688 300.375 101.094C300.078 100.5 299.641 100.047 299.062 99.7344C298.484 99.4219 297.781 99.2656 296.953 99.2656C296.094 99.2656 295.383 99.4531 294.82 99.8281C294.273 100.203 293.844 100.719 293.531 101.375C293.234 102.016 293.023 102.758 292.898 103.602C292.773 104.445 292.711 105.336 292.711 106.273V107.164C292.711 108.102 292.836 108.953 293.086 109.719C293.352 110.484 293.727 111.141 294.211 111.688C294.711 112.219 295.305 112.633 295.992 112.93C296.695 113.227 297.492 113.375 298.383 113.375C299.461 113.375 300.523 113.172 301.57 112.766C302.617 112.359 303.516 111.688 304.266 110.75L307.852 115.016C307.336 115.75 306.602 116.461 305.648 117.148C304.711 117.836 303.586 118.398 302.273 118.836C300.961 119.258 299.492 119.469 297.867 119.469ZM319.5 99.0547V119H311.602V93.6406H319.008L319.5 99.0547ZM318.562 105.453L316.711 105.5C316.711 103.562 316.945 101.836 317.414 100.32C317.883 98.7891 318.547 97.4922 319.406 96.4297C320.266 95.3672 321.289 94.5625 322.477 94.0156C323.68 93.4531 325.016 93.1719 326.484 93.1719C327.656 93.1719 328.727 93.3438 329.695 93.6875C330.68 94.0312 331.523 94.5859 332.227 95.3516C332.945 96.1172 333.492 97.1328 333.867 98.3984C334.258 99.6484 334.453 101.195 334.453 103.039V119H326.508V103.016C326.508 102 326.367 101.227 326.086 100.695C325.805 100.148 325.398 99.7734 324.867 99.5703C324.336 99.3672 323.688 99.2656 322.922 99.2656C322.109 99.2656 321.422 99.4219 320.859 99.7344C320.297 100.047 319.844 100.484 319.5 101.047C319.172 101.594 318.93 102.242 318.773 102.992C318.633 103.742 318.562 104.562 318.562 105.453ZM352.195 93.6406V99.125H336.914V93.6406H352.195ZM340.125 87.3359H348.023V110.727C348.023 111.398 348.102 111.922 348.258 112.297C348.414 112.656 348.68 112.914 349.055 113.07C349.445 113.211 349.961 113.281 350.602 113.281C351.055 113.281 351.43 113.273 351.727 113.258C352.023 113.227 352.305 113.188 352.57 113.141V118.789C351.898 119.008 351.195 119.172 350.461 119.281C349.727 119.406 348.945 119.469 348.117 119.469C346.43 119.469 344.984 119.203 343.781 118.672C342.594 118.141 341.688 117.305 341.062 116.164C340.438 115.023 340.125 113.539 340.125 111.711V87.3359Z" fill="black"/>
<path d="M1134 0H1348C1356.28 0 1363 6.71573 1363 15V148C1363 156.284 1356.28 163 1348 163H1134V0Z" fill="#0D9488"/>
<path d="M1212.5 117.5L1212.5 45.5L1284.5 45.5L1284.5 117.5L1212.5 117.5Z" fill="white" fill-opacity="0.01"/>
<path d="M1221.5 81.5125L1221.5 108.5L1275.5 108.5L1275.5 81.5" stroke="white" stroke-width="7.24" stroke-linecap="round" stroke-linejoin="round"/>
<path d="M1262 68L1248.5 54.5L1235 68" stroke="white" stroke-width="7.24" stroke-linecap="round" stroke-linejoin="round"/>
<path d="M1248.49 93.4999L1248.49 54.5" stroke="white" stroke-width="7.24" stroke-linecap="round" stroke-linejoin="round"/>
</svg>
